<svg width="332" height="312" viewBox="0 0 332 312" fill="none" xmlns="http://www.w3.org/2000/svg">
<g style="mix-blend-mode:color" opacity="0.7">
<path d="M12.8462 111.416L31.3462 0.415527L41.8462 3.41553L44.3462 5.91553L46.3462 11.9155L48.8462 46.9155L50.8462 102.416L48.8462 166.416L181.346 276.916L331.846 226.916C331.846 226.916 293.378 254.838 267.846 271.416C253.941 280.444 246.307 285.807 231.846 293.916C222.248 299.298 204.846 306.416 204.846 306.416C204.846 306.416 191.037 311.646 180.846 311.416C180.362 311.405 179.828 311.363 179.252 311.295C161.018 309.145 145.008 298.517 129.439 288.786L116.846 280.916L67.8462 245.916L12.8462 203.916C12.8462 203.916 3.78542 196.382 1.34618 189.416C0.885427 188.1 0.563255 186.543 0.338647 184.962C-0.510669 178.987 0.445615 172.941 1.63806 167.025L12.8462 111.416Z" fill="url(#paint0_linear_1_39)" fill-opacity="0.6"/>
</g>
<defs>
<linearGradient id="paint0_linear_1_39" x1="-74.1538" y1="142.416" x2="29.8462" y2="0.415528" gradientUnits="userSpaceOnUse">
<stop stop-color="#54B465"/>
<stop offset="1" stop-color="#54B465" stop-opacity="0"/>
</linearGradient>
</defs>
</svg>
