<svg width="338" height="342" viewBox="0 0 338 342" fill="none" xmlns="http://www.w3.org/2000/svg">
<g style="mix-blend-mode:color" opacity="0.7">
<path d="M286.846 290.416L137.065 341.477C134.442 342.371 131.544 341.845 129.403 340.086L0.846191 234.416L36.8462 261.416L130.346 306.416L274.346 235.916L281.846 240.416L300.846 151.916L318.846 60.9155L317.346 47.9155L307.346 37.4155L261.346 0.915527C261.346 0.915527 281.616 9.82484 295.346 16.4155C307.846 22.4155 314.927 25.2563 322.846 35.9155C328.003 42.8563 330.749 49.5269 332.846 57.9155C336.346 71.9155 336.346 84.4155 336.346 84.4155C337.85 106.098 338.072 127.696 337.346 149.416L333.846 226.916C333.846 226.916 331.346 255.416 322.346 266.916C311.56 280.697 286.846 290.416 286.846 290.416Z" fill="#D9D9D9"/>
<path d="M286.846 290.416L137.065 341.477C134.442 342.371 131.544 341.845 129.403 340.086L0.846191 234.416L36.8462 261.416L130.346 306.416L274.346 235.916L281.846 240.416L300.846 151.916L318.846 60.9155L317.346 47.9155L307.346 37.4155L261.346 0.915527C261.346 0.915527 281.616 9.82484 295.346 16.4155C307.846 22.4155 314.927 25.2563 322.846 35.9155C328.003 42.8563 330.749 49.5269 332.846 57.9155C336.346 71.9155 336.346 84.4155 336.346 84.4155C337.85 106.098 338.072 127.696 337.346 149.416L333.846 226.916C333.846 226.916 331.346 255.416 322.346 266.916C311.56 280.697 286.846 290.416 286.846 290.416Z" fill="url(#paint0_linear_1_45)"/>
</g>
<defs>
<linearGradient id="paint0_linear_1_45" x1="45.3462" y1="283.416" x2="333.846" y2="30.9155" gradientUnits="userSpaceOnUse">
<stop stop-color="#FF9C00"/>
<stop offset="0.919883" stop-color="#FF9C00" stop-opacity="0"/>
</linearGradient>
</defs>
</svg>
