<svg width="342" height="316" viewBox="0 0 342 316" fill="none" xmlns="http://www.w3.org/2000/svg">
<g style="mix-blend-mode:color" opacity="0.7" filter="url(#filter0_f_1_41)">
<path d="M68.3462 47.4155C68.3462 47.4155 126.346 5.41558 151.346 1.41558C167.509 -1.17044 190.321 11.5566 211.346 24.9154C230.93 37.3582 252.846 53.9155 252.846 53.9155C252.846 53.9155 282.053 76.1934 302.846 92.915C312.043 100.311 317.791 103.785 326.346 111.915C331.251 116.577 335.303 118.372 338.346 124.415C343.001 133.658 338.346 150.915 338.346 150.915L305.846 314.415L296.346 309.416L291.346 253.416L289.846 198.916L291.846 149.416L247.346 117.416L239.846 109.416L200.846 72.9155L157.346 39.9155H151.346L1.84619 94.4155L68.3462 47.4155Z" fill="url(#paint0_linear_1_41)"/>
</g>
<defs>
<filter id="filter0_f_1_41" x="0.846191" y="0.0786133" width="340.569" height="315.336" filterUnits="userSpaceOnUse" color-interpolation-filters="sRGB">
<feFlood flood-opacity="0" result="BackgroundImageFix"/>
<feBlend mode="normal" in="SourceGraphic" in2="BackgroundImageFix" result="shape"/>
<feGaussianBlur stdDeviation="0.5" result="effect1_foregroundBlur_1_41"/>
</filter>
<linearGradient id="paint0_linear_1_41" x1="134.346" y1="4.41553" x2="306.846" y2="314.416" gradientUnits="userSpaceOnUse">
<stop stop-color="#D86EC0"/>
<stop offset="1" stop-color="#D86EC0" stop-opacity="0"/>
</linearGradient>
</defs>
</svg>
